<svg aria-hidden="true" style="position:absolute;width:0;height:0" xmlns="http://www.w3.org/2000/svg" overflow="hidden"><defs><symbol id="icon-facebook_fff" viewBox="0 0 32 32"><path fill="var(--color1, #fff)" d="M13.912 11.099v2.203h-1.613v2.693h1.613V24h3.315v-8.005h2.224s.211-1.291.31-2.704h-2.522v-1.84c0-.277.362-.646.72-.646h1.806V8h-2.456c-3.482 0-3.4 2.696-3.4 3.099z"/><path fill="none" stroke="var(--color1, #fff)" stroke-width="2.08" d="M30.96 16c0 8.262-6.698 14.96-14.96 14.96S1.04 24.262 1.04 16 7.738 1.04 16 1.04 30.96 7.738 30.96 16z"/></symbol><symbol id="icon-icon-android" viewBox="0 0 28 32"><path fill="var(--color1, #fff)" d="M10.639 7.196a.724.724 0 01-.714-.719.723.723 0 111.446 0c0 .387-.32.719-.733.719zm7.927 0h-.004a.728.728 0 01-.728-.719.723.723 0 111.446 0 .723.723 0 01-.715.719zM3.313 10.591c-1.071 0-1.934.85-1.934 1.884v7.936c0 1.052.863 1.901 1.934 1.901s1.917-.849 1.917-1.901v-7.936c0-1.034-.864-1.882-1.917-1.882zm19.911.352H5.983v12.292c0 1.126.92 2.03 2.066 2.03h1.39l.018 4.188c0 1.053.864 1.902 1.916 1.902 1.071 0 1.934-.849 1.934-1.901v-4.189H15.9v4.188c0 1.053.864 1.902 1.934 1.902 1.071 0 1.935-.849 1.935-1.901v-4.189h1.409a2.038 2.038 0 002.047-2.031V10.945zm-4.358-7.474l1.336-2.418a.266.266 0 00-.096-.368l-.001-.001c-.131-.056-.301-.019-.376.111l-1.352 2.435a9.287 9.287 0 00-3.746-.775H14.6h.002c-1.352 0-2.63.277-3.775.775L9.476.793C9.401.661 9.231.626 9.1.682a.266.266 0 00-.094.369l-.001-.001 1.334 2.418C7.69 4.797 5.906 7.343 5.906 10.277h17.375c0-2.934-1.785-5.482-4.415-6.809zm8.96 9.005c0-1.052-.864-1.882-1.934-1.882-1.053 0-1.917.831-1.917 1.882v7.936c0 1.052.864 1.901 1.916 1.901 1.071 0 1.935-.849 1.935-1.901v-7.936z"/></symbol><symbol id="icon-icon-apple" viewBox="0 0 27 32"><path fill="var(--color1, #fff)" d="M26.371 22.531c-1.083-.315-2.054-1.053-2.899-2.211a6.462 6.462 0 01-1.264-3.855v-.061.003c0-1.334.403-2.544 1.192-3.634.44-.614 1.136-1.299 2.09-2.07-.624-.738-1.264-1.334-1.907-1.755-1.136-.755-2.44-1.141-3.907-1.141-.898 0-1.962.21-3.173.597-1.211.403-2.091.595-2.624.595-.421 0-1.264-.176-2.53-.526-1.285-.352-2.349-.526-3.248-.526-2.109 0-3.834.843-5.208 2.528C1.517 12.177.819 14.353.819 17.04c0 2.878.917 5.81 2.696 8.829 1.816 3.019 3.632 4.546 5.522 4.546.605 0 1.413-.192 2.421-.597.992-.386 1.872-.579 2.605-.579.752 0 1.688.176 2.77.562 1.101.368 1.946.562 2.568.562 1.56 0 3.136-1.141 4.715-3.44 1.064-1.526 1.797-3.002 2.256-4.387zM19.475 1.942c0-.122-.019-.227-.019-.35-.019-.106-.056-.229-.093-.386-2.128.474-3.667 1.334-4.586 2.597-.917 1.264-1.392 2.774-1.43 4.512.862-.07 1.486-.176 1.907-.299.661-.21 1.322-.632 1.982-1.264.77-.736 1.339-1.544 1.706-2.422.349-.859.531-1.667.531-2.387z"/></symbol><symbol id="icon-insta_fff" viewBox="0 0 32 32"><path fill="var(--color1, #fff)" d="M24.926 7.074a1.704 1.704 0 11-2.872 1.551l-.002-.011a1.716 1.716 0 010-.342l-.001.007c.003-.45.181-.883.496-1.205a1.65 1.65 0 011.692-.413l-.012-.003c.262.082.502.224.698.416zM22.584 16a6.584 6.584 0 01-13.168 0 6.584 6.584 0 0113.168 0zm-2.043 0l.001-.085a4.542 4.542 0 10-9.083.09v-.004a4.543 4.543 0 009.084.004v-.004zM32 16c0 8.837-7.163 16-16 16S0 24.837 0 16 7.163 0 16 0c8.833.008 15.992 7.167 16 15.999V16zm-2.043 0c0-7.708-6.249-13.957-13.957-13.957S2.043 8.292 2.043 16c0 7.708 6.249 13.957 13.957 13.957 7.703-.012 13.945-6.253 13.957-13.956V16z"/></symbol><symbol id="icon-logo" viewBox="0 0 31 32"><path fill="var(--color1, #fff)" d="M15.792 0h-.096a13.45 13.45 0 00-2.041.157l.075-.009-.04.005C8.229.985 3.854 5.154 2.71 10.507l-.008.033c-.036.175-.068.351-.098.528-.008.045-.017.089-.024.135a11.06 11.06 0 00-.06.45c-.009.074-.021.147-.028.222-.014.129-.023.261-.033.391-.007.095-.016.191-.022.286-.007.119-.008.24-.012.359-.002.094-.008.186-.009.28l.001.046-.001.048c0 .042.004.083.005.124.002.235.01.47.024.702.006.079.01.158.017.237.021.257.047.513.082.767l.008.068c.04.28.092.555.149.83l.041.182c.051.23.109.458.173.684l.039.141c.082.275.169.545.266.811l.014.037c.094.252.196.501.303.746l.054.122c.234.519.5 1.02.797 1.502l.016.029c0 .015.004.03.003.045.016.025.033.048.047.075l.043.024c.468.727.962 1.36 1.509 1.944l-.007-.007.011.012a13.368 13.368 0 001.817 1.618l.03.021c.201.147.407.29.617.426l.071.047c.449.288.915.552 1.4.785l.027.013c.22.106.443.204.67.298l.152.062a15.36 15.36 0 00.747.274 12.99 12.99 0 002.217.525l.074.009c.079.01.157.022.235.031.208.025.417.045.628.062.054.004.109.01.164.013.246.016.495.025.744.027l.096.001c7.271 0 13.229-5.916 13.28-13.189C29.03 6.057 23.115.057 15.791.004zM14.53 25.66c-.24-.023-.428-.046-.615-.073l.067.008-.072-.01a10.882 10.882 0 01-.621-.104l.081.013a10.883 10.883 0 01-.685-.148l.083.017-.065-.015a10.316 10.316 0 01-.612-.166l.084.022-.058-.017a10.214 10.214 0 01-.609-.198l.088.027-.054-.018a12.62 12.62 0 01-.513-.196l-.048-.019a12.696 12.696 0 01-1.045-.489l-.036-.018c-.23-.121-.39-.212-.547-.306l.059.033-.032-.019a11.486 11.486 0 01-.52-.324l.044.028-.029-.018c-.2-.132-.351-.238-.499-.346l.037.026-.024-.017a13.319 13.319 0 01-.449-.343l-.022-.017a12.052 12.052 0 01-.446-.376l.014.012-.021-.018c-.15-.133-.285-.258-.416-.387l.003.003-.022-.02a13.06 13.06 0 01-.388-.394l-.006-.007-.022-.023a12.26 12.26 0 01-.371-.417l-.012-.015a21.16 21.16 0 005.422 1.759l.133.02a17.657 17.657 0 002.72 2.517l.046.033a.195.195 0 01-.025-.002h.002zm-9.452-5.92a11.452 11.452 0 01-.631-1.163l-.032-.075-.033-.075a8.63 8.63 0 01-.216-.494l-.028-.079-.045-.115a11.51 11.51 0 01-.208-.583l-.027-.082a11.943 11.943 0 01-.558-2.88l-.002-.04-.001-.012a20.465 20.465 0 005.031 2.695l.144.046a14.975 14.975 0 002.484 5.194 20.795 20.795 0 01-5.952-2.355l.098.053-.024-.038.001.002zm-1.57-8.899c.03-.143.062-.284.095-.425l.035-.15c.031-.122.065-.243.098-.362.02-.069.039-.139.06-.208.108-.364.205-.64.312-.912l-.027.079c.01-.03.024-.058.034-.087a19.123 19.123 0 003.951 2.214l.129.047a14.071 14.071 0 00-.181 2.245v.002c0 .886.086 1.758.242 2.613a19.847 19.847 0 01-5.03-2.871l.043.032c.013-.743.093-1.469.231-2.175l.008-.043zM4.5 7.892c.12-.248.25-.49.385-.728.212-.373.405-.677.61-.971l-.027.041a12.328 12.328 0 01.674-.889c.083-.1.169-.196.254-.292.127-.143.255-.281.388-.417a8.08 8.08 0 01.182-.187 15.91 15.91 0 003.02 1.513 14.456 14.456 0 00-1.615 4.125l-.019.098A18.484 18.484 0 014.41 7.943l.049.035.04-.086zm3.249-4.153a12.321 12.321 0 011.48-1.062c.21-.129.423-.251.64-.367.075-.04.152-.078.228-.117.197-.1.396-.194.598-.284l.157-.071a12.07 12.07 0 012.601-.783l.078-.012.083-.014c.244-.045.566-.089.892-.121l.05-.004c-1.672 1.241-3.055 2.702-4.112 4.317a14.934 14.934 0 01-2.885-1.407l.062.037.129-.112zm8.39 6.145c1.685.217 2.991 1.657 2.991 3.399s-1.306 3.183-2.991 3.4v-6.8zm-3.911 12.442a14.39 14.39 0 01-2.782-5.114c1.736.549 3.737.882 5.809.92h.02v4.47a21.51 21.51 0 01-3.172-.295l.126.017zm3.047 1.125v1.681a17.254 17.254 0 01-2.143-1.823 22.24 22.24 0 002.143.142zm-6.084-7.216a13.245 13.245 0 01-.328-2.951v-.001c0-.655.05-1.301.142-1.939 1.861.681 4.01 1.095 6.249 1.14h.02v4.8a20.446 20.446 0 01-6.227-1.091l.144.043zm-.039-5.738a13.887 13.887 0 011.693-4.313l-.035.063c1.327.43 2.857.697 4.444.737h.021v4.652a19.05 19.05 0 01-6.254-1.183l.132.043zm2.129-4.995c1.03-1.526 2.373-2.902 3.992-4.068v4.695a15.468 15.468 0 01-4.102-.656l.11.028zm4.857 12.038a4.286 4.286 0 003.839-4.257 4.285 4.285 0 00-3.839-4.255V5.367c4.174.231 7.501 3.687 7.501 7.917s-3.327 7.686-7.501 7.917V17.54zm0 8.167v-3.661c4.641-.232 8.349-4.066 8.349-8.763s-3.708-8.533-8.349-8.764V.859c6.693.235 12.042 5.773 11.995 12.512-.047 6.661-5.387 12.103-11.995 12.335z"/></symbol><symbol id="icon-mail_fff" viewBox="0 0 32 32"><path fill="var(--color1, #fff)" d="M15.997 0C7.231 0 .058 7.133 0 15.901l-.001.146c0 4.368 1.763 8.325 4.616 11.197l-.001-.001A15.837 15.837 0 0015.894 32h.108c8.766 0 15.939-7.133 15.997-15.901C32.047 7.283 24.917.057 15.996 0zm12.569 21.774L22.217 16l6.355-5.774a13.696 13.696 0 011.266 5.859 13.681 13.681 0 01-1.308 5.773l.036-.084zM16.08 2.155a13.83 13.83 0 0111.429 6.164l.032.05-11.546 10.496L4.464 8.383c2.526-3.776 6.774-6.229 11.595-6.229h.023-.001zM3.426 10.224L9.776 16l-6.363 5.781c-.794-1.684-1.258-3.659-1.258-5.741l.001-.131v.007a13.681 13.681 0 011.308-5.773l-.036.084zm12.571 19.619h-.093a13.709 13.709 0 01-9.758-4.115l-.002-.002a14.099 14.099 0 01-1.675-2.047l-.032-.05 6.867-6.237 3.995 3.627c.2.176.448.27.698.27.269-.002.513-.105.697-.273l-.001.001 3.995-3.626 6.854 6.229c-2.488 3.741-6.739 6.224-11.546 6.224z"/></symbol><symbol id="icon-telegram_fff" viewBox="0 0 32 32"><path fill="none" stroke="var(--color1, #fff)" stroke-width="2.08" d="M30.96 16c0 8.262-6.698 14.96-14.96 14.96S1.04 24.262 1.04 16 7.738 1.04 16 1.04 30.96 7.738 30.96 16z"/><path fill="var(--color1, #fff)" d="M18.565 15.573l-3.594-1.677c-.314-.146-.571.018-.571.365v3.158c0 .347.258.51.571.365l3.592-1.677c.315-.147.315-.387.002-.534zM16 22.08c-7.862 0-8-.709-8-6.24s.138-6.24 8-6.24 8 .709 8 6.24-.138 6.24-8 6.24z"/></symbol></defs></svg>