<!-- Generated by IcoMoon.io -->
<svg version="1.1" xmlns="http://www.w3.org/2000/svg" width="27" height="32" viewBox="0 0 27 32">
<title>icon-apple</title>
<path fill="#fff" d="M26.371 22.531c-1.083-0.315-2.054-1.053-2.899-2.211-0.79-1.065-1.264-2.405-1.264-3.855 0-0.020 0-0.041 0-0.061l-0 0.003c0-1.334 0.403-2.544 1.192-3.634 0.44-0.614 1.136-1.299 2.090-2.070-0.624-0.738-1.264-1.334-1.907-1.755-1.136-0.755-2.44-1.141-3.907-1.141-0.898 0-1.962 0.21-3.173 0.597-1.211 0.403-2.091 0.595-2.624 0.595-0.421 0-1.264-0.176-2.53-0.526-1.285-0.352-2.349-0.526-3.248-0.526-2.109 0-3.834 0.843-5.208 2.528-1.376 1.702-2.074 3.878-2.074 6.565 0 2.878 0.917 5.81 2.696 8.829 1.816 3.019 3.632 4.546 5.522 4.546 0.605 0 1.413-0.192 2.421-0.597 0.992-0.386 1.872-0.579 2.605-0.579 0.752 0 1.688 0.176 2.77 0.562 1.101 0.368 1.946 0.562 2.568 0.562 1.56 0 3.136-1.141 4.715-3.44 1.064-1.526 1.797-3.002 2.256-4.387zM19.475 1.942c0-0.122-0.019-0.227-0.019-0.35-0.019-0.106-0.056-0.229-0.093-0.386-2.128 0.474-3.667 1.334-4.586 2.597-0.917 1.264-1.392 2.774-1.43 4.512 0.862-0.070 1.486-0.176 1.907-0.299 0.661-0.21 1.322-0.632 1.982-1.264 0.77-0.736 1.339-1.544 1.706-2.422 0.349-0.859 0.531-1.667 0.531-2.387z"></path>
</svg>
