<!-- Generated by IcoMoon.io -->
<svg version="1.1" xmlns="http://www.w3.org/2000/svg" width="28" height="32" viewBox="0 0 28 32">
<title>icon-android</title>
<path fill="#fff" d="M10.639 7.196c-0.394-0.005-0.711-0.325-0.714-0.719v-0c0-0.4 0.324-0.723 0.723-0.723s0.723 0.324 0.723 0.723v0c0 0.387-0.32 0.719-0.733 0.719zM18.566 7.196c-0.001 0-0.003 0-0.004 0-0.399 0-0.723-0.321-0.728-0.719v-0c0-0.4 0.324-0.723 0.723-0.723s0.723 0.324 0.723 0.723v0c-0.002 0.395-0.321 0.715-0.715 0.719h-0zM3.313 10.591c-1.071 0-1.934 0.85-1.934 1.884v7.936c0 1.052 0.863 1.901 1.934 1.901s1.917-0.849 1.917-1.901v-7.936c0-1.034-0.864-1.882-1.917-1.882zM23.224 10.943h-17.241v12.292c0 1.126 0.92 2.030 2.066 2.030h1.39l0.018 4.188c0 1.053 0.864 1.902 1.916 1.902 1.071 0 1.934-0.849 1.934-1.901v-4.189h2.593v4.188c0 1.053 0.864 1.902 1.934 1.902 1.071 0 1.935-0.849 1.935-1.901v-4.189h1.409c1.127 0 2.047-0.904 2.047-2.031v-12.289zM18.866 3.469l1.336-2.418c0.024-0.039 0.038-0.086 0.038-0.137 0-0.099-0.054-0.185-0.134-0.231l-0.001-0.001c-0.131-0.056-0.301-0.019-0.376 0.111l-1.352 2.435c-1.104-0.49-2.392-0.775-3.746-0.775-0.011 0-0.021 0-0.031 0h0.002c-1.352 0-2.63 0.277-3.775 0.775l-1.351-2.435c-0.075-0.132-0.245-0.167-0.376-0.111-0.080 0.047-0.133 0.132-0.133 0.23 0 0.051 0.014 0.099 0.039 0.139l-0.001-0.001 1.334 2.418c-2.649 1.329-4.433 3.875-4.433 6.809h17.375c0-2.934-1.785-5.482-4.415-6.809zM27.826 12.474c0-1.052-0.864-1.882-1.934-1.882-1.053 0-1.917 0.831-1.917 1.882v7.936c0 1.052 0.864 1.901 1.916 1.901 1.071 0 1.935-0.849 1.935-1.901v-7.936z"></path>
</svg>
