<!-- Generated by IcoMoon.io -->
<svg version="1.1" xmlns="http://www.w3.org/2000/svg" width="32" height="32" viewBox="0 0 32 32">
<title>insta_fff</title>
<path fill="#fff" d="M24.926 7.074c0.31 0.309 0.502 0.736 0.502 1.208 0 0.941-0.763 1.704-1.704 1.704-0.824 0-1.511-0.585-1.67-1.361l-0.002-0.011c-0.005-0.050-0.008-0.108-0.008-0.167s0.003-0.117 0.008-0.175l-0.001 0.007c0.003-0.45 0.181-0.883 0.496-1.205 0.3-0.305 0.718-0.494 1.179-0.494 0.179 0 0.351 0.028 0.513 0.081l-0.012-0.003c0.262 0.082 0.502 0.224 0.698 0.416zM22.584 16c0 3.636-2.948 6.584-6.584 6.584s-6.584-2.948-6.584-6.584v0c0-3.636 2.948-6.584 6.584-6.584s6.584 2.948 6.584 6.584v0zM20.541 16c0-0.025 0.001-0.055 0.001-0.085 0-2.509-2.034-4.542-4.542-4.542s-4.542 2.034-4.542 4.542c0 0.030 0 0.060 0.001 0.090l-0-0.004c0.048 2.472 2.063 4.457 4.542 4.457s4.494-1.985 4.542-4.453l0-0.004zM32 16c0 8.837-7.163 16-16 16s-16-7.163-16-16c0-8.837 7.163-16 16-16v0c8.833 0.008 15.992 7.167 16 15.999v0.001zM29.957 16c0-7.708-6.249-13.957-13.957-13.957s-13.957 6.249-13.957 13.957c0 7.708 6.249 13.957 13.957 13.957v0c7.703-0.012 13.945-6.253 13.957-13.956v-0.001z"></path>
</svg>
