<!-- Generated by IcoMoon.io -->
<svg version="1.1" xmlns="http://www.w3.org/2000/svg" width="31" height="32" viewBox="0 0 31 32">
<title>logo</title>
<path fill="#fff" d="M15.792 0h-0.096c-0.695 0.001-1.376 0.054-2.041 0.157l0.075-0.009-0.040 0.005c-5.461 0.832-9.836 5.001-10.98 10.354-0.002 0.011-0.006 0.022-0.008 0.033-0.036 0.175-0.068 0.351-0.098 0.528-0.008 0.045-0.017 0.089-0.024 0.135-0.024 0.149-0.042 0.299-0.060 0.45-0.009 0.074-0.021 0.147-0.028 0.222-0.014 0.129-0.023 0.261-0.033 0.391-0.007 0.095-0.016 0.191-0.022 0.286-0.007 0.119-0.008 0.24-0.012 0.359-0.002 0.094-0.008 0.186-0.009 0.28l0.001 0.046-0.001 0.048c0 0.042 0.004 0.083 0.005 0.124 0.002 0.235 0.010 0.47 0.024 0.702 0.006 0.079 0.010 0.158 0.017 0.237 0.021 0.257 0.047 0.513 0.082 0.767l0.008 0.068c0.040 0.28 0.092 0.555 0.149 0.83 0.013 0.061 0.027 0.121 0.041 0.182 0.051 0.23 0.109 0.458 0.173 0.684l0.039 0.141c0.082 0.275 0.169 0.545 0.266 0.811l0.014 0.037c0.094 0.252 0.196 0.501 0.303 0.746 0.018 0.040 0.036 0.081 0.054 0.122 0.234 0.519 0.5 1.020 0.797 1.502l0.016 0.029c0 0.015 0.004 0.030 0.003 0.045 0.016 0.025 0.033 0.048 0.047 0.075l0.043 0.024c0.468 0.727 0.962 1.36 1.509 1.944l-0.007-0.007 0.011 0.012c0.554 0.592 1.163 1.135 1.817 1.618l0.030 0.021c0.201 0.147 0.407 0.29 0.617 0.426l0.071 0.047c0.449 0.288 0.915 0.552 1.4 0.785l0.027 0.013c0.22 0.106 0.443 0.204 0.67 0.298l0.152 0.062c0.197 0.078 0.399 0.153 0.6 0.223 0.048 0.017 0.097 0.034 0.147 0.051 0.493 0.163 0.997 0.297 1.513 0.401 0.173 0.039 0.437 0.085 0.704 0.124l0.074 0.009c0.079 0.010 0.157 0.022 0.235 0.031 0.208 0.025 0.417 0.045 0.628 0.062 0.054 0.004 0.109 0.010 0.164 0.013 0.246 0.016 0.495 0.025 0.744 0.027l0.096 0.001c7.271 0 13.229-5.916 13.28-13.189 0.051-7.326-5.864-13.326-13.188-13.379zM14.53 25.66c-0.24-0.023-0.428-0.046-0.615-0.073l0.067 0.008-0.072-0.010c-0.255-0.036-0.439-0.068-0.621-0.104l0.081 0.013c-0.281-0.052-0.484-0.098-0.685-0.148l0.083 0.017-0.065-0.015c-0.261-0.063-0.437-0.113-0.612-0.166l0.084 0.022-0.058-0.017c-0.264-0.078-0.437-0.136-0.609-0.198l0.088 0.027-0.054-0.018c-0.173-0.062-0.344-0.127-0.513-0.196l-0.048-0.019c-0.171-0.070-0.339-0.145-0.506-0.222-0.014-0.006-0.028-0.012-0.042-0.019-0.168-0.078-0.334-0.161-0.497-0.248l-0.036-0.018c-0.23-0.121-0.39-0.212-0.547-0.306l0.059 0.033-0.032-0.019c-0.212-0.125-0.367-0.223-0.52-0.324l0.044 0.028-0.029-0.018c-0.2-0.132-0.351-0.238-0.499-0.346l0.037 0.026-0.024-0.017c-0.152-0.111-0.301-0.225-0.449-0.343l-0.022-0.017c-0.168-0.135-0.308-0.254-0.446-0.376l0.014 0.012-0.021-0.018c-0.15-0.133-0.285-0.258-0.416-0.387l0.003 0.003-0.022-0.020c-0.134-0.13-0.262-0.261-0.388-0.394l-0.006-0.007c-0.008-0.008-0.014-0.016-0.022-0.023-0.126-0.136-0.251-0.275-0.371-0.417l-0.012-0.015c1.605 0.784 3.468 1.402 5.422 1.759l0.133 0.020c0.828 0.944 1.734 1.781 2.72 2.517l0.046 0.033c-0.009-0-0.017-0.001-0.025-0.002l0.002 0zM5.078 19.74c-0.212-0.338-0.433-0.744-0.631-1.163l-0.032-0.075c-0.012-0.025-0.022-0.050-0.033-0.075-0.056-0.114-0.138-0.302-0.216-0.494l-0.028-0.079-0.045-0.115c-0.074-0.192-0.144-0.386-0.208-0.583l-0.027-0.082c-0.285-0.857-0.485-1.851-0.558-2.88l-0.002-0.040c0-0.004 0-0.008-0.001-0.012 1.489 1.095 3.199 2.021 5.031 2.695l0.144 0.046c0.475 1.857 1.314 3.61 2.484 5.194-2.214-0.511-4.168-1.304-5.952-2.355l0.098 0.053c-0.009-0.015-0.016-0.027-0.024-0.038l0.001 0.002zM3.508 10.841c0.030-0.143 0.062-0.284 0.095-0.425 0.012-0.050 0.023-0.101 0.035-0.15 0.031-0.122 0.065-0.243 0.098-0.362 0.020-0.069 0.039-0.139 0.060-0.208 0.108-0.364 0.205-0.64 0.312-0.912l-0.027 0.079c0.010-0.030 0.024-0.058 0.034-0.087 1.178 0.863 2.521 1.621 3.951 2.214l0.129 0.047c-0.113 0.674-0.179 1.452-0.181 2.245v0.002c0 0.886 0.086 1.758 0.242 2.613-1.906-0.754-3.553-1.71-5.030-2.871l0.043 0.032c0.013-0.743 0.093-1.469 0.231-2.175 0.003-0.014 0.005-0.029 0.008-0.043zM4.5 7.892c0.12-0.248 0.25-0.49 0.385-0.728 0.212-0.373 0.405-0.677 0.61-0.971l-0.027 0.041c0.071-0.104 0.145-0.205 0.219-0.305 0.147-0.199 0.297-0.395 0.455-0.584 0.083-0.1 0.169-0.196 0.254-0.292 0.127-0.143 0.255-0.281 0.388-0.417 0.060-0.063 0.121-0.127 0.182-0.187 0.939 0.604 1.951 1.112 3.020 1.513-0.715 1.217-1.279 2.628-1.615 4.125l-0.019 0.098c-1.487-0.626-2.768-1.366-3.942-2.242l0.049 0.035c0.014-0.029 0.026-0.058 0.040-0.086zM7.749 3.739c0.161-0.133 0.323-0.264 0.491-0.389 0.097-0.072 0.195-0.143 0.293-0.212 0.143-0.102 0.288-0.2 0.436-0.296 0.086-0.056 0.173-0.112 0.26-0.165 0.21-0.129 0.423-0.251 0.64-0.367 0.075-0.040 0.152-0.078 0.228-0.117 0.197-0.1 0.396-0.194 0.598-0.284 0.053-0.024 0.104-0.048 0.157-0.071 0.768-0.335 1.666-0.611 2.601-0.783l0.078-0.012 0.083-0.014c0.244-0.045 0.566-0.089 0.892-0.121l0.050-0.004c-1.672 1.241-3.055 2.702-4.112 4.317-1.083-0.396-2.014-0.858-2.885-1.407l0.062 0.037 0.129-0.112zM16.139 9.884c1.685 0.217 2.991 1.657 2.991 3.399s-1.306 3.183-2.991 3.4v-6.8zM12.228 22.326c-1.29-1.538-2.228-3.269-2.782-5.114 1.736 0.549 3.737 0.882 5.809 0.92l0.020 0v4.47c-1.093-0.022-2.145-0.121-3.172-0.295l0.126 0.017zM15.275 23.451v1.681c-0.795-0.574-1.495-1.173-2.143-1.823l-0-0c0.704 0.081 1.419 0.129 2.143 0.142zM9.191 16.235c-0.207-0.887-0.327-1.905-0.328-2.951v-0.001c0-0.655 0.050-1.301 0.142-1.939 1.861 0.681 4.010 1.095 6.249 1.14l0.020 0v4.8c-2.189-0.043-4.274-0.424-6.227-1.091l0.144 0.043zM9.152 10.497c0.344-1.605 0.917-3.027 1.693-4.313l-0.035 0.063c1.327 0.43 2.857 0.697 4.444 0.737l0.021 0v4.652c-2.209-0.046-4.306-0.46-6.254-1.183l0.132 0.043zM11.281 5.502c1.030-1.526 2.373-2.902 3.992-4.068v4.695c-1.436-0.037-2.805-0.263-4.102-0.656l0.11 0.028zM16.138 17.54c2.153-0.221 3.839-2.046 3.839-4.257 0-2.21-1.686-4.034-3.839-4.255v-3.661c4.174 0.231 7.501 3.687 7.501 7.917s-3.327 7.686-7.501 7.917v-3.661zM16.138 25.707v-3.661c4.641-0.232 8.349-4.066 8.349-8.763s-3.708-8.533-8.349-8.764v-3.66c6.693 0.235 12.042 5.773 11.995 12.512-0.047 6.661-5.387 12.103-11.995 12.335z"></path>
</svg>
