<!-- Generated by IcoMoon.io -->
<svg version="1.1" xmlns="http://www.w3.org/2000/svg" width="32" height="32" viewBox="0 0 32 32">
<title>mail_fff</title>
<path fill="#fff" d="M15.997 0c-8.766 0-15.939 7.133-15.997 15.901-0 0.043-0.001 0.095-0.001 0.146 0 4.368 1.763 8.325 4.616 11.197l-0.001-0.001c2.873 2.925 6.864 4.742 11.28 4.757h0.108c8.766 0 15.939-7.133 15.997-15.901 0.048-8.816-7.082-16.042-16.003-16.099zM28.566 21.774l-6.349-5.774 6.355-5.774c0.826 1.786 1.28 3.77 1.266 5.859-0.013 2.067-0.481 4.022-1.308 5.773l0.036-0.084zM16.080 2.155c4.77 0.032 8.964 2.472 11.429 6.164l0.032 0.050-11.546 10.496-11.531-10.482c2.526-3.776 6.774-6.229 11.595-6.229 0.008 0 0.015 0 0.023 0h-0.001zM3.426 10.224l6.35 5.776-6.363 5.781c-0.794-1.684-1.258-3.659-1.258-5.741 0-0.044 0-0.087 0.001-0.131l-0 0.007c0.013-2.067 0.481-4.022 1.308-5.773l-0.036 0.084zM15.997 29.843h-0.093c-3.823-0.015-7.275-1.587-9.758-4.115l-0.002-0.002c-0.619-0.626-1.181-1.312-1.675-2.047l-0.032-0.050 6.867-6.237 3.995 3.627c0.2 0.176 0.448 0.27 0.698 0.27 0.269-0.002 0.513-0.105 0.697-0.273l-0.001 0.001 3.995-3.626 6.854 6.229c-2.488 3.741-6.739 6.224-11.546 6.224z"></path>
</svg>
