<!-- Generated by IcoMoon.io -->
<svg version="1.1" xmlns="http://www.w3.org/2000/svg" width="32" height="32" viewBox="0 0 32 32">
<title>telegram_fff</title>
<path fill="none" stroke="#fff" stroke-linejoin="miter" stroke-linecap="butt" stroke-miterlimit="4" stroke-width="2.0800" d="M30.96 16c0 8.262-6.698 14.96-14.96 14.96s-14.96-6.698-14.96-14.96c0-8.262 6.698-14.96 14.96-14.96s14.96 6.698 14.96 14.96z"></path>
<path fill="#fff" d="M18.565 15.573l-3.594-1.677c-0.314-0.146-0.571 0.018-0.571 0.365v3.158c0 0.347 0.258 0.51 0.571 0.365l3.592-1.677c0.315-0.147 0.315-0.387 0.002-0.534zM16 22.080c-7.862 0-8-0.709-8-6.24s0.138-6.24 8-6.24 8 0.709 8 6.24-0.138 6.24-8 6.24z"></path>
</svg>
