<!-- Generated by IcoMoon.io -->
<svg version="1.1" xmlns="http://www.w3.org/2000/svg" width="39" height="32" viewBox="0 0 39 32">
<title>check-icon</title>
<path fill="#fff" d="M37.771 5.9c0-0.636-0.244-1.272-0.682-1.729l-3.314-3.458c-0.439-0.458-1.048-0.712-1.657-0.712s-1.218 0.254-1.657 0.712l-15.986 16.708-7.164-7.503c-0.439-0.458-1.048-0.712-1.657-0.712s-1.218 0.255-1.657 0.712l-3.314 3.459c-0.439 0.458-0.682 1.093-0.682 1.729s0.244 1.271 0.682 1.729l12.135 12.665c0.439 0.458 1.048 0.712 1.657 0.712s1.218-0.254 1.657-0.712l20.957-21.871c0.439-0.458 0.682-1.093 0.682-1.729z"></path>
</svg>
